<svg id="Layer_1" data-name="Layer 1" xmlns="http://www.w3.org/2000/svg" viewBox="0 0 500 161.81"><defs><style>.cls-1{fill:#191919;}.cls-2{fill:#ffd327;}</style></defs><title>VAULT LOGO BLACK WITH UNDERSCORE</title><path class="cls-1" d="M254.84,81.1l-21.21,36.72a7.44,7.44,0,0,1-6.45,3.73H138.06l21.21-36.73a7.45,7.45,0,0,1,6.45-3.72Z" transform="translate(-68 -81.1)"/><path class="cls-1" d="M161.42,162H119a7.44,7.44,0,0,1-6.45-3.73L91.35,121.55,68,81.1h42.41a7.45,7.45,0,0,1,6.45,3.72l21.2,36.73Z" transform="translate(-68 -81.1)"/><path class="cls-1" d="M206,158.27a7.47,7.47,0,0,1,0,7.46l-21.21,36.72L161.42,242.9l-21.2-36.72a7.41,7.41,0,0,1,0-7.45L161.42,162l23.35-40.45Z" transform="translate(-68 -81.1)"/><path class="cls-1" d="M437.2,135.72V171.5a14.76,14.76,0,0,1-.1,1.77,18.3,18.3,0,0,1-2,6.66,22.65,22.65,0,0,1-3.59,5,31.57,31.57,0,0,1-9.21,6.68,41.51,41.51,0,0,1-8.93,3.18,49.1,49.1,0,0,1-22.19,0,41.9,41.9,0,0,1-8.93-3.18A31.52,31.52,0,0,1,373,185a23,23,0,0,1-3.6-5,18.3,18.3,0,0,1-2-6.66,17.19,17.19,0,0,1-.09-1.77V135.72h14.9v33a11.18,11.18,0,0,0,2.94,7.35c3.16,3.63,8.57,6.18,14.87,6.66q1.09.09,2.22.09c.75,0,1.49,0,2.21-.09,6.3-.48,11.72-3,14.87-6.66a11.13,11.13,0,0,0,2.94-7.35v-33Z" transform="translate(-68 -81.1)"/><polygon class="cls-1" points="499.47 54.55 499.47 68.41 474.16 68.41 474.16 113.74 459.25 113.74 459.25 68.41 433.94 68.41 433.94 54.55 499.47 54.55"/><polygon class="cls-1" points="439.85 99.87 439.85 113.74 383.88 113.74 383.88 54.55 398.78 54.55 398.78 99.87 439.85 99.87"/><polygon class="cls-1" points="225.53 54.55 203.8 92.18 197.05 103.88 192.13 112.4 191.35 113.74 175.51 113.74 174.97 112.81 174.97 112.81 169.81 103.88 163.06 92.18 141.33 54.55 158.72 54.55 180.45 92.18 183.67 97.75 186.88 92.18 208.61 54.55 225.53 54.55"/><path class="cls-1" d="M358,185l-6.75-11.71-21.73-37.63H311.35l-21.73,37.63L282.87,185l-5.7,9.86h16.92l5.7-9.86h40.86l5.7,9.86h17.39Zm-51.5-11.71,13.68-23.69,13.68,23.69Z" transform="translate(-68 -81.1)"/><polygon class="cls-2" points="120.51 140.24 500 140.24 500 148.93 115.43 148.93 120.51 140.24"/></svg>